PathFileType	3	(X/Y/Z)	F:\ViconData\AntennenMessung\Messung1\Session1\ID15.trc
DataRate	CameraRate	NumFrames	NumMarkers	Units	OrigDataRate	OrigDataStartFrame	OrigNumFrames
120.0	120.0	4	70	mm	120.0	504	1342	
Frame#	Time	Ashort			Along			Atop			A4			Bshort			Blong			Btop			B4			Cshort			Clong			Ctop			C4			Dshort			Dlong			Dtop			D4			Eshort			Elong			Etop			E4			Fshort			Flong			Ftop			F4			Gshort			Glong			Gtop			G4			Hshort			Hlong			Htop			H4			I1			I2			I3			I4			I5			WandAshort			WandAlong			WandAtop			WandA4			WandA15			WandBshort			WandB4			WandB5			WandBtop			WandBlong			WandCshort			WandClong			WandCtop			WandC4			WandC5			Acenter			Aantenna			Bcenter			Bantenna			Ccenter			Cantenna			Dcenter			Dantenna			Ecenter			Eantenna			Fcenter			Fantenna			Gcenter			Gantenna			Hcenter			Hantenna			Icenter			Iantenna			
		X1	Y1	Z1	X2	Y2	Z2	X3	Y3	Z3	X4	Y4	Z4	X5	Y5	Z5	X6	Y6	Z6	X7	Y7	Z7	X8	Y8	Z8	X9	Y9	Z9	X10	Y10	Z10	X11	Y11	Z11	X12	Y12	Z12	X13	Y13	Z13	X14	Y14	Z14	X15	Y15	Z15	X16	Y16	Z16	X17	Y17	Z17	X18	Y18	Z18	X19	Y19	Z19	X20	Y20	Z20	X21	Y21	Z21	X22	Y22	Z22	X23	Y23	Z23	X24	Y24	Z24	X25	Y25	Z25	X26	Y26	Z26	X27	Y27	Z27	X28	Y28	Z28	X29	Y29	Z29	X30	Y30	Z30	X31	Y31	Z31	X32	Y32	Z32	X33	Y33	Z33	X34	Y34	Z34	X35	Y35	Z35	X36	Y36	Z36	X37	Y37	Z37	X38	Y38	Z38	X39	Y39	Z39	X40	Y40	Z40	X41	Y41	Z41	X42	Y42	Z42	X43	Y43	Z43	X44	Y44	Z44	X45	Y45	Z45	X46	Y46	Z46	X47	Y47	Z47	X48	Y48	Z48	X49	Y49	Z49	X50	Y50	Z50	X51	Y51	Z51	X52	Y52	Z52	X53	Y53	Z53	X54	Y54	Z54	X55	Y55	Z55	X56	Y56	Z56	X57	Y57	Z57	X58	Y58	Z58	X59	Y59	Z59	X60	Y60	Z60	X61	Y61	Z61	X62	Y62	Z62	X63	Y63	Z63	X64	Y64	Z64	X65	Y65	Z65	X66	Y66	Z66	X67	Y67	Z67	X68	Y68	Z68	X69	Y69	Z69	X70	Y70	Z70	
504	4.1916667	-1038.1976	214.52156	-1644.0525	-1109.4116	204.13066	-1599.3081	-1063.6898	173.10934	-1625.8501	-1054.1703	262.24365	-1634.849	-1352.7676	235.10094	1003.6839	-1281.3441	227.44878	1052.4153	-1322.7197	193.84865	1021.0236	-1284.4716	287.88504	1052.8579	814.13318	187.48544	1209.4742	892.29944	178.59682	1179.2698	844.54126	145.51237	1198.3217	860.95758	292.27658	1167.3287	1115.8228	209.97733	-1401.739	1056.2733	194.10551	-1460.1733	1095.1687	162.50618	-1423.7776	1069.7701	238.85123	-1425.7897	-1204.6132	1686.0519	-1563.045	-1129.1342	1688.2865	-1605.9209	-1173.1047	1724.3779	-1581.9579	-1134.0416	1581.0332	-1603.8077	-1239.5833	1699.1335	1119.4722	-1309.2948	1698.8508	1071.9462	-1270.4139	1736.3281	1096.8889	-1245.5836	1592.8203	1110.682	988.95923	1664.2784	1162.2107	957.56702	1700.3518	1183.7761	921.92358	1662.3894	1214.8434	939.85608	1659.4532	1159.9189	999.1311	1668.429	-1579.3455	1058.9233	1670.1635	-1518.5814	1025.0026	1708.0494	-1551.0579	1059.3066	1672.1522	-1585.3486	-201.71696	1171.582	-147.20679	-197.02451	1170.8176	-231.24353	-199.09312	1208.4813	-184.95692	-166.73727	1171.1919	-182.5766	-247.64336	1172.5806	-186.66333																																														-1068.5433	210.09377	-1624.986	-1073.6165	248.75185	-1624.0826	-1321.4213	231.74254	1025.071	-1320.0933	270.49948	1029.2107	848.11084	183.62167	1196.3447	851.74316	222.40001	1194.3331	1088.8148	202.77885	-1428.2411	1082.7731	241.07353	-1432.4856	-1171.8328	1687.0223	-1581.6658	-1170.5057	1648.0461	-1581.3611	-1271.0388	1699.006	1098.0272	-1271.6912	1660.0295	1099.2161	952.78186	1705.8506	1187.0634	972.80408	1734.05	1169.0386	1026.5543	1669.2244	-1551.4763	1028.1118	1630.2577	-1551.8966	-199.62631	1171.2413	-184.64795	-200.18463	1132.2467	-184.32443
505	4.2	-1038.2052	214.61137	-1644.0812	-1109.3981	204.19051	-1599.3506	-1063.6725	172.92331	-1625.7836	-1054.1801	262.2684	-1634.8452	-1352.6707	235.12843	1003.7177	-1281.4126	227.38721	1052.3643	-1322.7598	193.78256	1021.0694	-1284.4475	287.90091	1052.9022	814.09668	187.53754	1209.42	892.19489	178.50017	1179.2526	844.49268	145.52306	1198.2527	861.13489	292.36691	1167.3864	1115.7714	209.6777	-1401.58	1056.2753	194.09921	-1460.1702	1095.1802	162.46805	-1423.8038	1069.7324	238.85315	-1425.733	-1204.6014	1686.054	-1563.0403	-1129.1223	1688.2994	-1605.9479	-1173.1094	1724.3778	-1581.9617	-1134.0302	1581.0364	-1603.8167	-1239.5934	1699.1603	1119.4863	-1309.1866	1698.64	1071.8668	-1270.3998	1736.328	1096.891	-1245.6398	1592.9127	1110.6948	988.95941	1664.2882	1162.2283	957.33838	1700.5459	1183.7102	921.9964	1662.3285	1214.8988	939.83484	1659.4454	1159.8842	999.1156	1668.4534	-1579.3745	1058.917	1670.1716	-1518.5837	1025.0117	1708.0596	-1551.0563	1059.3035	1672.1562	-1585.3456	-201.72827	1171.5907	-147.20523	-197.01877	1170.8225	-231.24658	-199.11246	1208.4974	-184.96922	-166.70389	1171.0807	-182.57349	-247.64967	1172.5916	-186.67628																																														-1068.6149	210.16014	-1624.9746	-1073.745	248.81212	-1624.1351	-1321.3765	231.72871	1025.0817	-1319.9636	270.48706	1029.1797	848.13373	183.59882	1196.2722	851.84131	222.3698	1194.2559	1088.868	202.63332	-1428.0735	1082.8466	240.94977	-1432.1469	-1171.8318	1687.0288	-1581.6686	-1170.4987	1648.0529	-1581.3629	-1270.9159	1698.926	1098.0538	-1271.4536	1659.9486	1099.2656	952.76062	1705.7947	1186.8201	972.69055	1733.9534	1168.6299	1026.557	1669.2417	-1551.4791	1028.1083	1630.2749	-1551.9037	-199.6295	1171.2482	-184.65771	-200.17079	1132.2534	-184.33159
506	4.2083333	-1038.194	214.54837	-1644.0753	-1109.4366	204.23761	-1599.3352	-1063.6136	172.93233	-1625.8452	-1054.1351	262.26038	-1634.8214	-1352.7709	235.07198	1003.7347	-1281.3699	227.34993	1052.386	-1322.7562	193.78679	1021.097	-1284.4298	287.98141	1052.7201	814.03687	187.56415	1209.4155	892.31964	178.59711	1179.2726	844.49652	145.55804	1198.3485	861.04175	292.28452	1167.3445	1115.7566	209.65936	-1401.5657	1056.2821	194.10973	-1460.1987	1095.2399	162.56015	-1423.7819	1069.7765	238.8748	-1425.7982	-1204.6074	1686.0596	-1563.0251	-1129.1818	1688.464	-1606.5021	-1173.1334	1724.4392	-1581.9558	-1134.0277	1581.0503	-1603.8328	-1239.568	1699.1354	1119.4736	-1309.2134	1698.6583	1071.8762	-1270.4507	1736.3719	1096.9082	-1245.6072	1592.7996	1110.6443	988.9339	1664.2482	1162.238	957.28186	1700.5533	1183.7002	921.95996	1662.3092	1214.8352	939.84271	1659.4176	1159.9004	999.12628	1668.4551	-1579.3624	1058.9274	1670.171	-1518.5789	1025	1708.0431	-1551.0469	1059.2975	1672.1537	-1585.3492	-201.72495	1171.5717	-147.20512	-197.0159	1170.8185	-231.25124	-199.10327	1208.4855	-184.95897	-166.68639	1171.0905	-182.56169	-247.62585	1172.5554	-186.66594																																														-1068.4988	210.16241	-1625.0438	-1073.5713	248.82217	-1624.2119	-1321.3949	231.67865	1025.1135	-1320.0027	270.43665	1029.222	848.07611	183.66505	1196.3086	851.71832	222.4391	1194.2329	1088.9303	202.64558	-1428.0125	1082.8988	240.96356	-1432.0564	-1171.8988	1687.1022	-1581.8789	-1170.6101	1648.1237	-1581.7987	-1270.9557	1698.9204	1098.0225	-1271.4812	1659.9412	1099.182	952.75372	1705.7469	1186.7705	972.70685	1733.8929	1168.5861	1026.5558	1669.2422	-1551.4822	1028.1183	1630.2759	-1551.9194	-199.62666	1171.236	-184.65448	-200.17461	1132.2411	-184.33572
507	4.2166667	-1038.188	214.54984	-1644.0707	-1109.3895	204.17621	-1599.355	-1063.6104	172.95319	-1625.7961	-1054.1464	262.26233	-1634.8445	-1352.7495	235.10127	1003.7755	-1281.39	227.3343	1052.4044	-1322.6887	193.87694	1021.018	-1284.3831	287.95139	1052.731	814.00134	187.70885	1209.5459	892.2865	178.55136	1179.2648	844.46069	145.49043	1198.293	861.07739	292.25079	1167.3539	1115.7611	209.67216	-1401.5848	1056.2649	194.10788	-1460.1732	1095.2562	162.56393	-1423.8308	1069.7816	238.85318	-1425.771	-1204.6318	1686.0714	-1563.0128	-1129.1327	1688.3063	-1605.9624	-1173.1152	1724.3843	-1581.9728	-1134.0338	1581.0261	-1603.8094	-1239.6039	1699.1829	1119.4902	-1309.2822	1698.8047	1071.9319	-1270.4092	1736.3168	1096.8865	-1245.6045	1592.7958	1110.6541	988.93005	1664.2422	1162.2289	957.35895	1700.5304	1183.7784	921.90466	1662.2609	1214.8982	939.85272	1659.4628	1159.9226	999.11938	1668.4633	-1579.3739	1058.9155	1670.1625	-1518.584	1024.9966	1708.0468	-1551.0481	1059.3041	1672.1597	-1585.355	-201.72792	1171.5726	-147.20428	-197.01476	1170.8149	-231.23453	-199.1805	1208.5881	-184.97063	-166.68272	1171.0836	-182.57465	-247.62183	1172.561	-186.6738																																														-1068.5344	210.12854	-1625.0126	-1073.6543	248.78242	-1624.1979	-1321.3873	231.68771	1025.1476	-1320.0538	270.43451	1029.3794	848.17175	183.7117	1196.3285	851.93579	222.47847	1194.3361	1088.9058	202.64679	-1428.0304	1082.8356	240.96178	-1432.0447	-1171.8369	1687.0421	-1581.6688	-1170.5028	1648.0662	-1581.3519	-1271.0057	1699.0125	1098.057	-1271.629	1660.0366	1099.28	952.79907	1705.7714	1186.8907	972.79169	1733.9281	1168.7662	1026.548	1669.2427	-1551.4894	1028.1058	1630.2762	-1551.9326	-199.62714	1171.235	-184.65887	-200.0934	1132.2391	-184.3334
